<?xml version="1.0" encoding="utf-8"?>
<!-- Generator: Adobe Illustrator 17.1.0, SVG Export Plug-In . SVG Version: 6.00 Build 0)  -->
<!DOCTYPE svg PUBLIC "-//W3C//DTD SVG 1.1//EN" "http://www.w3.org/Graphics/SVG/1.1/DTD/svg11.dtd">
<svg version="1.1" xmlns="http://www.w3.org/2000/svg" xmlns:xlink="http://www.w3.org/1999/xlink" x="0px" y="0px"
	 viewBox="0 0 30 30" enable-background="new 0 0 30 30" xml:space="preserve">
<g id="Layer_1">
	<rect x="0" fill="#FFFFFF" width="30" height="30"/>
</g>
<g id="Layer_2">
	<g>
		<polyline fill="#CCCCCC" points="15,20.5 15.3,20.9 15,21.2 14.7,20.9 15,20.5 		"/>
		<rect x="15" y="8.8" fill="#CCCCCC" width="6" height="0.5"/>
		
			<rect x="21.1" y="8.8" transform="matrix(0.9409 -0.3386 0.3386 0.9409 -2.3044 7.8415)" fill="#CCCCCC" width="0.5" height="3.5"/>
		<polygon fill="#CCCCCC" points="14.9,20.6 15.3,20.9 22.2,12.1 21.8,11.8 		"/>
		<rect x="9" y="8.8" fill="#CCCCCC" width="6" height="0.5"/>
		
			<rect x="8.4" y="8.8" transform="matrix(-0.9409 -0.3386 0.3386 -0.9409 13.2317 23.3594)" fill="#CCCCCC" width="0.5" height="3.5"/>
		<polygon fill="#CCCCCC" points="15.1,20.6 14.7,20.9 7.8,12.1 8.2,11.8 		"/>
	</g>
</g>
<g id="Layer_3">
	
		<rect x="14.4" y="10.5" transform="matrix(-0.852 -0.5235 0.5235 -0.852 26.0492 28.529)" fill="#CCCCCC" width="5.2" height="0.1"/>
	<rect x="10.3" y="10.5" transform="matrix(0.852 -0.5235 0.5235 0.852 -3.6283 8.3302)" fill="#CCCCCC" width="5.2" height="0.1"/>
	<rect x="14.9" y="0" fill="#CCCCCC" width="0.1" height="30"/>
	<rect x="8.3" y="11.9" fill="#CCCCCC" width="13.4" height="0.2"/>
	<rect x="0" y="14.9" fill="#CCCCCC" width="30" height="0.1"/>
	
		<rect x="11.4" y="14.8" transform="matrix(-0.4551 0.8904 -0.8904 -0.4551 39.079 5.8413)" fill="#CCCCCC" width="12.8" height="0.1"/>
	
		<rect x="5.8" y="14.8" transform="matrix(0.4551 0.8904 -0.8904 0.4551 19.9172 -2.7943)" fill="#CCCCCC" width="12.8" height="0.1"/>
</g>
</svg>
