<?xml version="1.0" encoding="iso-8859-1"?>
<!-- Generator: Adobe Illustrator 19.1.0, SVG Export Plug-In . SVG Version: 6.00 Build 0)  -->
<svg version="1.1" id="Capa_1" xmlns="http://www.w3.org/2000/svg" xmlns:xlink="http://www.w3.org/1999/xlink" x="0px" y="0px"
	 viewBox="0 0 427.259 427.259" style="enable-background:new 0 0 427.259 427.259;" xml:space="preserve">
<g>
	<g>
	</g>
	<g>
	</g>
	<g>
	</g>
	<g>
	</g>
	<g>
	</g>
	<g>
	</g>
	<g>
	</g>
	<g>
	</g>
	<g>
	</g>
	<g>
	</g>
	<g>
	</g>
	<g>
	</g>
	<g>
	</g>
	<g>
	</g>
	<g>
	</g>
</g>
<g>
	<path style="fill:#231F20;" d="M269.25,48c0-1.218-0.988-2-2.206-2H159.317c-1.218,0-2.206,0.782-2.206,2c0,1.218,0.988,2,2.206,2
		h107.727C268.245,50,269.25,49.235,269.25,48z"/>
	<path style="fill:#231F20;" d="M186.933,40.323c0.776,0.741,1.959,0.829,2.841,0.212l23.363-16.993l22.269,16.975
		c0.406,0.282,0.882,0.441,1.341,0.441c0.582,0,1.182-0.247,1.623-0.688l16.834-17.963c0.829-0.9,0.776-2.294-0.106-3.123
		c-0.882-0.865-2.276-0.776-3.123,0.088L236.5,35.788l-21.987-16.746c-0.776-0.582-1.853-0.6-2.629-0.035l-23.187,16.869
		l-15.122-14.787c-0.865-0.829-2.276-0.847-3.123,0.053c-0.847,0.847-0.829,2.259,0.035,3.106L186.933,40.323z"/>
	<path style="fill:#231F20;" d="M214.478,103.777l20.187-46.744c0.476-1.112-0.035-2.417-1.147-2.911
		c-1.165-0.494-2.435,0.053-2.912,1.165l-18.281,42.297L191.98,55.216c-0.529-1.094-1.835-1.57-2.947-1.041
		c-1.094,0.512-1.57,1.835-1.041,2.929l22.445,46.744c0.371,0.776,1.147,1.253,1.994,1.253
		C213.366,105.206,214.107,104.589,214.478,103.777z"/>
	<path style="fill:#231F20;" d="M243.643,132.762c1.002-1.62,1.663-3.518,1.663-5.552v-0.671c0-5.841-4.924-10.54-10.764-10.54
		h-3.548l60.65-64.131c2.823-3,3.212-7.555,0.935-10.979L267.645,3.717C266.003,1.265,263.251,0,260.304,0h-93.769
		c-2.823,0-5.488,1.131-7.146,3.442l-26.945,37.277c-2.47,3.423-2.153,8.119,0.759,11.207L193.866,116h-1.322
		c-5.841,0-10.239,4.699-10.239,10.54v0.671c0,2.034,0.398,3.933,1.4,5.552c-67.689,13.931-118.838,73.989-118.838,145.724
		c0,82.035,66.688,148.771,148.723,148.771c82.053,0,148.8-66.736,148.8-148.771C362.391,206.736,311.336,146.69,243.643,132.762z
		 M171.052,17h84.541l18.404,27.71l-61.566,65.107l-61.407-64.937L171.052,17z M213.543,406.101
		c-70.354,0-127.596-57.26-127.596-127.614s57.243-127.596,127.596-127.596c70.371,0,127.596,57.225,127.596,127.596
		S283.896,406.101,213.543,406.101z"/>
	<path style="fill:#231F20;" d="M213.543,163.808c-63.242,0-114.697,51.455-114.697,114.697S150.3,393.202,213.543,393.202
		S328.24,341.73,328.24,278.505C328.24,215.263,276.785,163.808,213.543,163.808z M213.543,375.557
		c-53.52,0-97.052-43.55-97.052-97.051s43.532-97.051,97.052-97.051c53.519,0,97.051,43.532,97.051,97.051
		C310.594,332.007,267.062,375.557,213.543,375.557z"/>
</g>
<g>
</g>
<g>
</g>
<g>
</g>
<g>
</g>
<g>
</g>
<g>
</g>
<g>
</g>
<g>
</g>
<g>
</g>
<g>
</g>
<g>
</g>
<g>
</g>
<g>
</g>
<g>
</g>
<g>
</g>
</svg>
